<svg version="1.1" viewBox="0 0 1280 720" xmlns="http://www.w3.org/2000/svg">
    <defs>
        <linearGradient id="j" x2="70.235%" y1="100%" y2="30.652%">
            <stop stop-color="#002E64" offset="0"/>
            <stop stop-color="#0059BF" offset="1"/>
        </linearGradient>
        <linearGradient id="i" y1="100%">
            <stop stop-color="#00C0E6" offset="0"/>
            <stop stop-color="#0080FF" offset="1"/>
        </linearGradient>
        <linearGradient id="k" x1="-9.332%" x2="64.351%" y1="35.649%" y2="90.668%">
            <stop stop-color="#3A81D2" offset="0"/>
            <stop stop-color="#002E64" offset="1"/>
        </linearGradient>
    </defs>
    <g fill="none" fill-rule="evenodd">
        <linearGradient x1="-2.0138%" x2="103.35%" y1="115.4%" y2="21.201%">
            <stop stop-color="#01A4B7" offset="0"/>
            <stop stop-color="#07f" offset="1"/>
        </linearGradient>
        <g transform="translate(-587 -1891)">
            <rect x="-3000" y="-3000" width="10000" height="10000" fill="url(#j)" fill-rule="evenodd" />
            <rect id="e" x="-3000" y="-3000" width="10000" height="10000" fill="url(#i)" fill-rule="evenodd" opacity=".4" />
            <path id="d" d="m414.09 1546.8c0-159.84 99.429-296.47 239.84-351.46 264.4-68.458 472.56-276.53 541.05-540.81 55.014-140.35 191.7-239.73 351.61-239.73 159.91 0 296.6 99.385 351.61 239.73 68.488 264.28 276.65 472.35 541.05 540.81 140.41 54.99 239.84 191.62 239.84 351.46s-99.429 296.47-239.84 351.46c-264.4 68.458-472.56 276.53-541.05 540.81-55.014 140.35-191.7 239.73-351.61 239.73-159.91 0-296.6-99.385-351.61-239.73-68.488-264.28-276.65-472.35-541.05-540.81-140.41-54.99-239.84-191.62-239.84-351.46z" />
            <path id="d" d="m414.09 1546.8c0-159.84 99.429-296.47 239.84-351.46 264.4-68.458 472.56-276.53 541.05-540.81 55.014-140.35 191.7-239.73 351.61-239.73 159.91 0 296.6 99.385 351.61 239.73 68.488 264.28 276.65 472.35 541.05 540.81 140.41 54.99 239.84 191.62 239.84 351.46s-99.429 296.47-239.84 351.46c-264.4 68.458-472.56 276.53-541.05 540.81-55.014 140.35-191.7 239.73-351.61 239.73-159.91 0-296.6-99.385-351.61-239.73-68.488-264.28-276.65-472.35-541.05-540.81-140.41-54.99-239.84-191.62-239.84-351.46z" transform="translate(1546.6 1546.8) rotate(60) translate(-1396.6 -1546.8)" fill="url(#k)" opacity=".15078"/>
            <circle cx="1933.5" cy="2009.5" r="223.5" fill="#051E2A" opacity=".05"/>
        </g>
    </g>
</svg>
