<svg version="1.1" viewBox="0 0 1280 720" xmlns="http://www.w3.org/2000/svg">
  <rect fill="#FFFFFF" height="100%" width="100%" />
  <path d="M-1788.9594,129.894157 C-1788.9594,-29.9457287 -1689.53048,-166.572999 -1549.12289,-221.563207 C-1284.72265,-290.021466 -1076.56049,-498.091719 -1008.072,-762.375226 C-953.057501,-902.720821 -816.369883,-1002.10584 -656.459396,-1002.10584 C-496.548909,-1002.10584 -359.861291,-902.720821 -304.846794,-762.375226 C-236.358297,-498.091719 -28.1961406,-290.021466 236.204099,-221.563207 C376.611667,-166.573024 476.040604,-29.945743 476.040604,129.894157 C476.040604,289.734058 376.611667,426.361338 236.204061,481.351537 C-28.1961406,549.809781 -236.358297,757.880034 -304.846794,1022.16354 C-359.861291,1162.50914 -496.548909,1261.89416 -656.459396,1261.89416 C-816.369883,1261.89416 -953.057501,1162.50914 -1008.072,1022.16354 C-1076.56049,757.880034 -1284.72265,549.809781 -1549.12289,481.351522 C-1689.53048,426.361314 -1788.9594,289.734043 -1788.9594,129.894157 Z" fill="#ECF0F2" transform="translate(-656.459396, 129.894157) rotate(-105.000000) translate(556.459396, -29.894157)" />
  <circle xmlns="http://www.w3.org/2000/svg" cx="1600" cy="800" r="600" fill="#ECF0F2" />
</svg>
